<svg width="512" height="512" viewBox="0 0 512 512" xmlns="http://www.w3.org/2000/svg">
  <!-- 背景 -->
  <rect width="512" height="512" rx="100" fill="#8b7355"/>
  
  <!-- 猫咪轮廓 -->
  <path d="M256 150 C200 150 150 200 150 256 C150 312 200 362 256 362 C312 362 362 312 362 256 C362 200 312 150 256 150 Z" fill="#F8F4E9"/>
  
  <!-- 猫咪耳朵 -->
  <path d="M220 180 L240 140 L260 180 Z" fill="#D4A574"/>
  <path d="M292 180 L272 140 L252 180 Z" fill="#D4A574"/>
  
  <!-- 猫咪眼睛 -->
  <circle cx="220" cy="240" r="15" fill="#5C4B37"/>
  <circle cx="292" cy="240" r="15" fill="#5C4B37"/>
  
  <!-- 猫咪鼻子 -->
  <circle cx="256" cy="270" r="8" fill="#D4A574"/>
  
  <!-- 猫咪嘴巴 -->
  <path d="M240 300 Q256 320 272 300" stroke="#5C4B37" stroke-width="3" fill="none"/>
  
  <!-- 听诊器 -->
  <circle cx="256" cy="200" r="40" stroke="#A8C8B8" stroke-width="8" fill="none"/>
  <path d="M296 200 L350 200 L380 250 L350 300 L296 300" stroke="#A8C8B8" stroke-width="8" fill="none"/>
  
  <!-- 心跳线 -->
  <path d="M300 250 L310 240 L320 260 L330 230 L340 270 L350 220 L360 280" stroke="#FF6B6B" stroke-width="4" fill="none"/>
</svg>
